<?xml version="1.0" encoding="UTF-8"?>
<svg id="Layer_1" xmlns="http://www.w3.org/2000/svg" version="1.1" viewBox="0 0 294.8 188.8">
  <!-- Generator: Adobe Illustrator 29.5.1, SVG Export Plug-In . SVG Version: 2.1.0 Build 141)  -->
  <defs>
    <style>
      .st0 {
        fill: #a3c8c5;
      }

      .st1 {
        fill: #c40287;
      }

      .st2 {
        fill: #e58958;
      }

      .st3 {
        fill: #cf1c71;
      }

      .st4 {
        fill: #8a0052;
      }
    </style>
  </defs>
  <path class="st2" d="M28.1,39.4h15.4c1.7,0,3,.4,4.1,1.1,1.1.8,1.8,1.8,2.3,3l15.9,44.1c.7,1.9,1.4,4,2.2,6.3.7,2.3,1.4,4.6,2.1,7.1.5-2.5,1.1-4.9,1.8-7.1.7-2.3,1.4-4.3,2.1-6.3l15.8-44.1c.4-1.1,1.1-2,2.2-2.9,1.1-.8,2.4-1.3,4-1.3h15.5l-33,82.3h-17.3L28.1,39.4Z"/>
  <g>
    <path class="st3" d="M56.5,146.1h6.2v3.1h-10.2v-16.9h3.9v13.7Z"/>
    <path class="st3" d="M80.3,140.8c0,1.2-.2,2.4-.6,3.4-.4,1-1,2-1.8,2.7-.8.8-1.7,1.4-2.8,1.8-1.1.4-2.3.7-3.6.7s-2.5-.2-3.6-.7c-1.1-.4-2-1-2.8-1.8-.8-.8-1.4-1.7-1.8-2.7-.4-1-.6-2.2-.6-3.4s.2-2.4.6-3.4c.4-1,1-2,1.8-2.7s1.7-1.4,2.8-1.8c1.1-.4,2.3-.7,3.6-.7s2.5.2,3.6.7c1.1.4,2,1.1,2.8,1.8s1.4,1.7,1.8,2.7.6,2.2.6,3.4ZM76.3,140.8c0-.8-.1-1.6-.3-2.2-.2-.7-.5-1.2-.9-1.7-.4-.5-.9-.8-1.5-1.1s-1.3-.4-2-.4-1.4.1-2,.4-1.1.6-1.5,1.1c-.4.5-.7,1-.9,1.7s-.3,1.4-.3,2.2.1,1.6.3,2.3.5,1.2.9,1.7c.4.5.9.8,1.5,1.1s1.3.4,2,.4,1.4-.1,2-.4,1.1-.6,1.5-1.1c.4-.5.7-1,.9-1.7.2-.7.3-1.4.3-2.3Z"/>
    <path class="st3" d="M80.1,132.3h3.1c.3,0,.6,0,.8.2s.4.4.5.6l3.3,9c.1.4.3.8.4,1.3.2.5.3.9.4,1.5.1-.5.2-1,.4-1.5.1-.5.3-.9.4-1.3l3.2-9c0-.2.2-.4.5-.6s.5-.3.8-.3h3.2l-6.8,16.9h-3.5l-6.8-16.9Z"/>
    <path class="st3" d="M109.4,132.3v3h-6.9v3.9h5.3v2.9h-5.3v4h6.9v3h-10.9v-16.9h10.9Z"/>
    <path class="st3" d="M131.1,149.2h-2.1c-.2,0-.4,0-.6-.2-.1-.1-.3-.3-.3-.4l-1.4-3.7h-7.2l-1.4,3.7c0,.2-.2.3-.3.4-.2.1-.3.2-.6.2h-2.1l6.6-16.7h2.7l6.6,16.7ZM126,142.9l-2.3-6.1c-.2-.5-.4-1.1-.6-1.8,0,.4-.2.7-.3,1,0,.3-.2.6-.3.8l-2.3,6.1h5.7Z"/>
    <path class="st3" d="M142.9,134.8h-5.2v14.4h-2.7v-14.4h-5.2v-2.3h13.1v2.3Z"/>
    <path class="st3" d="M153,134.7v5.3h6.5v2.2h-6.5v7h-2.7v-16.7h10.4v2.2h-7.7Z"/>
    <path class="st3" d="M166.1,149.2h-2.7v-16.7h2.7v16.7Z"/>
    <path class="st3" d="M182.7,149.2h-2.4c-.5,0-.8-.2-1-.6l-3.9-5.6c-.1-.2-.3-.3-.4-.4s-.4-.1-.7-.1h-1.5v6.7h-2.7v-16.7h4.9c1.1,0,2,.1,2.8.3.8.2,1.4.5,1.9,1,.5.4.9.9,1.1,1.5s.4,1.2.4,1.9,0,1.1-.3,1.6c-.2.5-.4,1-.8,1.4-.3.4-.7.8-1.2,1.1-.5.3-1,.5-1.6.7.3.2.6.5.9.8l4.5,6.4ZM174.9,140.5c.6,0,1.2,0,1.6-.2s.8-.4,1.2-.6c.3-.3.5-.6.7-1s.2-.8.2-1.2c0-.9-.3-1.6-.9-2.1-.6-.5-1.5-.7-2.7-.7h-2.2v5.9h2.1Z"/>
    <path class="st3" d="M193.5,135.4c0,.1-.2.2-.3.3,0,0-.2,0-.3,0s-.3,0-.5-.2c-.2-.1-.4-.3-.7-.4-.3-.2-.6-.3-.9-.4s-.8-.2-1.3-.2-.9,0-1.2.2c-.4.1-.6.3-.9.5s-.4.5-.5.7-.2.6-.2.9.1.8.3,1.1c.2.3.5.5.9.7s.8.4,1.3.5c.5.2,1,.3,1.4.5.5.2,1,.4,1.4.6.5.2.9.5,1.3.8.4.3.7.7.9,1.2.2.5.3,1.1.3,1.7s-.1,1.4-.4,2.1c-.3.6-.6,1.2-1.1,1.7s-1.1.9-1.8,1.1c-.7.3-1.5.4-2.4.4s-1.1,0-1.6-.2c-.5-.1-1-.3-1.4-.4-.5-.2-.9-.4-1.3-.7-.4-.3-.8-.6-1.1-.9l.8-1.3c0-.1.2-.2.3-.3.1,0,.2,0,.4,0s.4,0,.6.2c.2.2.5.3.8.5.3.2.7.4,1.1.5.4.2.9.2,1.6.2,1,0,1.7-.2,2.3-.7.5-.5.8-1.1.8-2s-.1-.9-.3-1.2-.5-.5-.9-.7-.8-.4-1.3-.5c-.5-.1-.9-.3-1.4-.4-.5-.2-1-.3-1.4-.6-.5-.2-.9-.5-1.3-.8-.4-.3-.7-.8-.9-1.3-.2-.5-.3-1.1-.3-1.9s.1-1.2.4-1.7c.2-.6.6-1.1,1-1.5s1-.8,1.7-1c.7-.3,1.4-.4,2.3-.4s1.8.2,2.6.5c.8.3,1.5.7,2.1,1.3l-.7,1.3Z"/>
    <path class="st3" d="M208.8,134.8h-5.2v14.4h-2.7v-14.4h-5.2v-2.3h13.1v2.3Z"/>
    <path class="st3" d="M229.3,132.5l-6.8,16.7h-2.4l-6.8-16.7h2.2c.2,0,.4,0,.6.2.1.1.3.3.3.4l4.3,10.9c.2.6.4,1.3.6,2.1,0-.4.2-.8.3-1.1,0-.4.2-.7.3-1l4.3-10.9c0-.2.2-.3.3-.4.2-.1.3-.2.6-.2h2.2Z"/>
    <path class="st3" d="M234,149.2h-2.7v-16.7h2.7v16.7Z"/>
    <path class="st3" d="M243.5,132.5c1.1,0,2,.1,2.7.3s1.4.5,1.9.9c.5.4.8.8,1.1,1.4.2.5.3,1.2.3,1.8s0,.8-.2,1.1c-.1.4-.3.7-.6,1-.3.3-.6.6-.9.9-.4.3-.8.5-1.3.6,2.4.5,3.5,1.8,3.5,3.8s-.1,1.4-.4,1.9c-.3.6-.7,1.1-1.2,1.5s-1.1.8-1.9,1-1.6.4-2.5.4h-6.1v-16.7h5.5ZM240.6,134.6v5.2h2.7c1.2,0,2-.2,2.6-.7.6-.4.9-1.1.9-1.9s-.3-1.6-.8-2c-.5-.4-1.4-.6-2.5-.6h-2.8ZM244,147c.6,0,1.1,0,1.5-.2.4-.1.8-.3,1-.6.3-.2.5-.5.6-.9.1-.3.2-.7.2-1.1,0-.8-.3-1.4-.8-1.9-.5-.5-1.4-.7-2.5-.7h-3.3v5.3h3.4Z"/>
    <path class="st3" d="M263.4,147v2.2h-10.4v-16.7h10.4v2.2h-7.7v5h6.1v2.1h-6.1v5.1h7.7Z"/>
  </g>
  <path class="st3" d="M222.8,91.3c0,9.2,4.7,17.5,14.1,17.5s8.6-1.8,10.5-4.3,4.1-3.4,6.8-3.4h11.7c-2.4,8-9.4,20.7-29.3,20.7s-30.3-16.2-30.3-33.2,10.3-34.9,31-34.9,29.5,16.3,29.5,32.1,0,3.6-.2,5.5h-43.6ZM250,80.9c-.1-8.2-3.7-15.1-12.9-15.1s-13,6.4-13.9,15.1h26.8Z"/>
  <path class="st0" d="M161.2,121.6v-40.4c0-5.6,4.7-10.2,10.5-10.2s10.5,4.6,10.5,10.2v40.4h18v-40.4c0-15.3-12.8-27.7-28.5-27.7s-28.5,12.4-28.5,27.7v40.4h18Z"/>
  <path class="st1" d="M122.2,121.6v-40.5c0-5.6,4.7-10.1,10.5-10.1s10.5,4.5,10.5,10.1v40.5h18v-40.5c0-15.2-12.8-27.6-28.5-27.6s-28.5,12.4-28.5,27.6v40.5s18,0,18,0Z"/>
  <path class="st4" d="M152.1,61.1c-5.5,5.1-9,12.2-9,20.2v40.4h18v-40.5c0-7.9-3.5-15-9-20.1Z"/>
</svg>