<?xml version="1.0" encoding="UTF-8"?>
<svg id="Layer_1" xmlns="http://www.w3.org/2000/svg" version="1.1" viewBox="0 0 294.8 188.8">
  <!-- Generator: Adobe Illustrator 29.5.1, SVG Export Plug-In . SVG Version: 2.1.0 Build 141)  -->
  <defs>
    <style>
      .st0 {
        fill: #a3c8c5;
      }

      .st1 {
        fill: #c40287;
      }

      .st2 {
        fill: #8a0052;
      }
    </style>
  </defs>
  <path class="st1" d="M138.4,106.8h18v-18.9c0-15.2-12.8-27.6-28.5-27.6s-28.5,12.4-28.5,27.6v40.5s18,0,18,0v-40.5c0-5.6,4.7-10.1,10.5-10.1s10.5,4.5,10.5,10.1v18.9Z"/>
  <path class="st0" d="M166.9,60.3c-15.7,0-28.5,12.4-28.5,27.7v18.8h18v-18.8c0-5.6,4.7-10.2,10.5-10.2s10.5,4.6,10.5,10.2v40.4h18v-40.4c0-15.3-12.8-27.7-28.5-27.7Z"/>
  <path class="st2" d="M155.5,123.2c-1.4,1.7-3.1,3.3-4.4,5-1.3-1.8-3-3.3-4.4-5-1.5-1.7-2.8-3.7-3.1-5.8-.1-.9,0-1.9.4-2.7.4-.8,1.3-1.6,2.4-1.8,1.8-.4,3.8.7,4.6,2.1,0,0,0,.2.1.3,0,0,0-.2.1-.3.8-1.4,2.8-2.5,4.6-2.1.2,0,.4.1.6.2v-25.2c0-7.9-3.5-15-9-20.1-5.5,5.1-9,12.2-9,20.2v40.4h18v-6.4c-.3.4-.6.8-.9,1.2Z"/>
</svg>