<?xml version="1.0" encoding="UTF-8"?>
<svg id="Layer_1" xmlns="http://www.w3.org/2000/svg" version="1.1" viewBox="0 0 294.8 188.8">
  <!-- Generator: Adobe Illustrator 29.5.1, SVG Export Plug-In . SVG Version: 2.1.0 Build 141)  -->
  <defs>
    <style>
      .st0 {
        fill: #a3c8c5;
      }

      .st1 {
        fill: #c40287;
      }

      .st2 {
        fill: #8a0052;
      }
    </style>
  </defs>
  <path class="st0" d="M156.4,128.4v-40.4c0-5.6,4.7-10.2,10.5-10.2s10.5,4.6,10.5,10.2v40.4h18v-40.4c0-15.3-12.8-27.7-28.5-27.7s-28.5,12.4-28.5,27.7v40.4h18Z"/>
  <path class="st1" d="M117.4,128.4v-40.5c0-5.6,4.7-10.1,10.5-10.1s10.5,4.5,10.5,10.1v40.5h18v-40.5c0-15.2-12.8-27.6-28.5-27.6s-28.5,12.4-28.5,27.6v40.5s18,0,18,0Z"/>
  <path class="st2" d="M147.3,67.9c-5.5,5.1-9,12.2-9,20.2v40.4h18v-40.5c0-7.9-3.5-15-9-20.1Z"/>
</svg>